<svg xmlns="http://www.w3.org/2000/svg" width="72" height="72" viewBox="0 0 72 72" fill="none"><path d="M26.8517 65.6759C20.3996 64.5801 14.4176 61.5953 9.66221 57.0991C4.90686 52.6028 1.59192 46.7972 0.136761 40.4166C-1.3184 34.036 -0.848401 27.3671 1.4873 21.2537C3.823 15.1403 7.91946 9.85696 13.2584 6.07213C18.5974 2.2873 24.939 0.171027 31.4809 -0.00896551C38.0229 -0.188958 44.4713 1.57542 50.0103 5.06096C55.5493 8.54649 59.93 13.5966 62.5984 19.5723C65.2667 25.5481 66.1027 32.181 65.0005 38.632L61.4747 38.0359C62.4591 32.2822 61.7146 26.3658 59.3356 21.0352C56.9565 15.7047 53.0499 11.1996 48.1098 8.08999C43.1697 4.98034 37.4183 3.40588 31.5831 3.5658C25.748 3.72572 20.0915 5.61285 15.3291 8.98841C10.5668 12.364 6.91271 17.0763 4.82922 22.5291C2.74573 27.9819 2.32645 33.9302 3.62444 39.6214C4.92242 45.3125 7.87934 50.4908 12.1211 54.5011C16.3628 58.5113 21.6987 61.1732 27.4537 62.1501L26.8517 65.6759Z" fill="#6A11BE"></path><path d="M32.851 44.9228C39.6837 44.9228 45.2226 39.3839 45.2226 32.5512C45.2226 25.7186 39.6837 20.1797 32.851 20.1797C26.0184 20.1797 20.4795 25.7186 20.4795 32.5512C20.4795 39.3839 26.0184 44.9228 32.851 44.9228Z" fill="#6A11BE" fill-opacity="0.16"></path><path d="M31.8521 46.7162C29.0512 46.715 26.3136 45.8833 23.9853 44.3264C21.6571 42.7695 19.8427 40.5571 18.7717 37.9691C17.7007 35.3811 17.421 32.5336 17.9682 29.7867C18.5153 27.0398 19.8647 24.5168 21.8456 22.5367C23.8265 20.5566 26.3501 19.2083 29.0973 18.6623C31.8444 18.1163 34.6917 18.3972 37.2793 19.4693C39.8669 20.5414 42.0784 22.3567 43.6344 24.6856C45.1904 27.0145 46.0208 29.7525 46.0208 32.5534C46.0161 36.3092 44.5216 39.9097 41.8653 42.5649C39.209 45.22 35.6079 46.713 31.8521 46.7162ZM31.8521 21.979C29.7581 21.9802 27.7115 22.6024 25.9711 23.7668C24.2307 24.9313 22.8748 26.5858 22.0748 28.521C21.2748 30.4562 21.0667 32.5852 21.4768 34.6386C21.8869 36.6921 22.8968 38.5778 24.3788 40.0573C25.8607 41.5367 27.7481 42.5434 29.8023 42.9501C31.8565 43.3567 33.9851 43.145 35.9189 42.3418C37.8528 41.5385 39.5049 40.1798 40.6665 38.4375C41.828 36.6951 42.4467 34.6474 42.4444 32.5534C42.4412 29.7459 41.324 27.0545 39.338 25.0702C37.3519 23.0858 34.6596 21.9709 31.8521 21.9701V21.979Z" fill="#6A11BE"></path><path d="M19.9701 71.2407L18.3398 68.0576L26.2975 63.9834L22.2203 56.0228L25.4033 54.3926L31.1108 65.5362L19.9701 71.2407Z" fill="#6A11BE"></path><path d="M57.6036 71.9996H44.3916V60.7457H54.2358V56.8265H44.5287V53.25H57.8123V64.3221H47.9681V68.4231H57.6036V71.9996Z" fill="#6A11BE"></path><path d="M70.657 64.4123H59.4746V53.4355H63.0511V60.8358H70.657V64.4123Z" fill="#6A11BE"></path><path d="M72.7171 53.4355H69.1406V71.8274H72.7171V53.4355Z" fill="#6A11BE"></path><path d="M31.8519 36.7077C34.1465 36.7077 36.0066 34.8476 36.0066 32.5531C36.0066 30.2585 34.1465 28.3984 31.8519 28.3984C29.5574 28.3984 27.6973 30.2585 27.6973 32.5531C27.6973 34.8476 29.5574 36.7077 31.8519 36.7077Z" fill="#F7F5FF"></path><path d="M31.8512 38.4972C30.6751 38.4978 29.5252 38.1496 28.547 37.4966C27.5688 36.8436 26.8063 35.9152 26.3558 34.8288C25.9053 33.7424 25.7871 32.5468 26.0162 31.3932C26.2453 30.2396 26.8114 29.1799 27.6428 28.348C28.4742 27.5162 29.5337 26.9496 30.6871 26.7199C31.8406 26.4903 33.0363 26.6078 34.1229 27.0578C35.2095 27.5077 36.1383 28.2698 36.7918 29.2477C37.4453 30.2255 37.7941 31.3752 37.7941 32.5513C37.7901 34.1265 37.1628 35.6362 36.0493 36.7503C34.9357 37.8644 33.4264 38.4925 31.8512 38.4972ZM31.8512 30.1849C31.3823 30.1843 30.9238 30.3229 30.5337 30.583C30.1436 30.8431 29.8394 31.2131 29.6597 31.6462C29.48 32.0793 29.4329 32.5559 29.5242 33.0158C29.6155 33.4757 29.8412 33.8982 30.1728 34.2297C30.5043 34.5613 30.9268 34.787 31.3867 34.8783C31.8466 34.9697 32.3232 34.9225 32.7563 34.7428C33.1894 34.5631 33.5594 34.2589 33.8195 33.8688C34.0797 33.4787 34.2182 33.0202 34.2176 32.5513C34.2129 31.9252 33.9621 31.326 33.5193 30.8832C33.0765 30.4404 32.4773 30.1896 31.8512 30.1849Z" fill="#6A11BE"></path><path d="M33.6878 14.1719H30.1113V20.1833H33.6878V14.1719Z" fill="#6A11BE"></path><path d="M33.6878 44.9258H30.1113V50.9372H33.6878V44.9258Z" fill="#6A11BE"></path><path d="M24.2555 15.7411L21.1582 17.5293L24.1639 22.7353L27.2612 20.9471L24.2555 15.7411Z" fill="#6A11BE"></path><path d="M39.6305 42.3719L36.5332 44.1602L39.5389 49.3662L42.6362 47.578L39.6305 42.3719Z" fill="#6A11BE"></path><path d="M16.8722 21.8148L15.084 24.9121L20.29 27.9178L22.0783 24.8205L16.8722 21.8148Z" fill="#6A11BE"></path><path d="M43.507 37.1918L41.7188 40.2891L46.9248 43.2948L48.713 40.1975L43.507 37.1918Z" fill="#6A11BE"></path><path d="M19.5271 30.7637H13.5156V34.3401H19.5271V30.7637Z" fill="#6A11BE"></path><path d="M50.281 30.7637H44.2695V34.3401H50.281V30.7637Z" fill="#6A11BE"></path><path d="M20.29 37.1876L15.084 40.1934L16.8722 43.2907L22.0783 40.2849L20.29 37.1876Z" fill="#6A11BE"></path><path d="M46.9248 21.8107L41.7188 24.8164L43.507 27.9137L48.713 24.908L46.9248 21.8107Z" fill="#6A11BE"></path><path d="M24.1639 42.374L21.1582 47.5801L24.2555 49.3683L27.2612 44.1623L24.1639 42.374Z" fill="#6A11BE"></path><path d="M39.5389 15.7393L36.5332 20.9453L39.6305 22.7335L42.6362 17.5275L39.5389 15.7393Z" fill="#6A11BE"></path></svg>