<svg xmlns="http://www.w3.org/2000/svg" width="72" height="72" viewBox="0 0 72 72" fill="none"><path d="M44.5792 58.5545L15.729 41.8978C12.7462 40.1756 11.7242 36.3615 13.4463 33.3786L30.1029 4.52842C31.8251 1.54561 35.6392 0.523592 38.622 2.24575L67.4722 18.9025C70.4551 20.6246 71.4771 24.4388 69.7549 27.4216L53.0983 56.2718C51.3762 59.2546 47.562 60.2766 44.5792 58.5545Z" fill="#6A11BE" fill-opacity="0.16"></path><path d="M53.4643 70.5937V56.3388C57.6688 52.1462 60.0319 46.4528 60.0319 40.5152V34.8969V39.539V28.9888C60.0319 27.297 58.6604 25.9257 56.9688 25.9257C55.2771 25.9257 53.9057 27.2972 53.9057 28.9888V34.2253V21.0192C53.9057 19.3276 52.5342 17.9561 50.8426 17.9561C49.1509 17.9561 47.7795 19.3276 47.7795 21.0192V34.2253V17.6705C47.7795 15.9789 46.408 14.6074 44.7164 14.6074C43.0247 14.6074 41.6533 15.9789 41.6533 17.6705V33.6377V34.2253V21.0192C41.6533 19.3276 40.2818 17.9561 38.5902 17.9561C36.8985 17.9561 35.527 19.3276 35.527 21.0192V36.9862L35.5268 26.4466V42.8385L31.3757 36.3582C30.4918 34.9785 28.7892 34.3675 27.2297 34.8705C25.3782 35.4678 24.3335 37.4255 24.8681 39.296L24.9851 39.7054C26.9075 46.4305 31.0519 52.3058 36.7423 56.3729V70.5936H53.4643V70.5937Z" fill="#F7F5FF"></path><path d="M71.7362 22.3251C71.2079 20.3533 69.9433 18.7051 68.1753 17.6845L59.2297 12.5197C58.5572 12.1316 57.6972 12.3618 57.3088 13.0344C56.9204 13.7069 57.1509 14.5668 57.8235 14.9552L66.7691 20.12C67.8864 20.7652 68.6856 21.8066 69.0196 23.0528C69.3534 24.2991 69.1821 25.6006 68.5369 26.718L61.4378 39.0141V28.9882C61.4378 26.5238 59.4329 24.5189 56.9685 24.5189C56.3834 24.5189 55.8243 24.6319 55.3116 24.8372V21.0189C55.3116 18.5545 53.3067 16.5496 50.8423 16.5496C50.2315 16.5496 49.649 16.6726 49.1182 16.8955C48.7503 14.799 46.9162 13.2009 44.716 13.2009C42.5157 13.2009 40.6817 14.799 40.3139 16.8955C39.783 16.6727 39.2005 16.5496 38.5898 16.5496C36.1254 16.5496 34.1205 18.5545 34.1205 21.0189L34.1202 38.0359L32.5595 35.5995C31.3323 33.6836 28.9628 32.8331 26.7976 33.532C24.2101 34.3668 22.7686 37.0683 23.5158 39.6824L23.6328 40.0914C24.2469 42.2398 25.0843 44.3111 26.1201 46.2733L16.4317 40.6798C14.1251 39.348 13.3321 36.3881 14.6637 34.0815L31.3207 5.23128C31.9659 4.11392 33.0075 3.31464 34.2536 2.98067C35.4998 2.64656 36.8015 2.81812 37.9189 3.46328L46.865 8.62821C47.5378 9.01674 48.3976 8.78627 48.7859 8.11355C49.1743 7.44097 48.9438 6.58108 48.2712 6.19269L39.3251 1.02776C37.557 0.00714497 35.4974 -0.26425 33.5256 0.264196C31.5539 0.792502 29.9057 2.05723 28.8851 3.82509L27.9965 5.36403C24.5606 4.37168 21.008 3.83114 17.4187 3.75886C17.409 3.75872 17.3995 3.75858 17.3899 3.75858C16.6265 3.75858 16 4.36971 15.9846 5.1365C15.9689 5.91286 16.5857 6.55507 17.3622 6.57068C20.473 6.63325 23.5538 7.07353 26.5449 7.87843L17.2317 24.0093C15.2107 23.3145 13.102 22.9421 10.9473 22.9037C10.1691 22.8881 9.53014 23.5081 9.51622 24.2845C9.5023 25.0611 10.1206 25.7016 10.8971 25.7155C12.571 25.7455 14.2123 26.0087 15.7949 26.4979L12.2285 32.6752C10.1214 36.3247 11.3763 41.0081 15.0258 43.1152L29.5693 51.5118C31.2476 53.5932 33.1827 55.4709 35.3361 57.0857V70.5932C35.3361 71.3697 35.9657 71.9994 36.7423 71.9994C37.5189 71.9994 38.1485 71.3697 38.1485 70.5932V56.3729C38.1485 55.9189 37.9293 55.4927 37.56 55.2288C32.1504 51.3623 28.1647 45.7118 26.3371 39.3184L26.2201 38.9094C25.8919 37.7614 26.5249 36.575 27.6611 36.2085C28.6117 35.902 29.6526 36.2752 30.1914 37.1164L34.3425 43.5965C34.6793 44.1221 35.3225 44.3629 35.9216 44.1875C36.521 44.0122 36.9327 43.4625 36.9327 42.838V37.0138C36.9328 37.0046 36.933 36.9953 36.933 36.986V21.019C36.933 20.1054 37.6763 19.3621 38.5899 19.3621C39.5035 19.3621 40.2468 20.1054 40.2468 21.019V34.2249C40.2468 35.0014 40.8764 35.6311 41.653 35.6311C42.4296 35.6311 43.0592 35.0014 43.0592 34.2249V17.6702C43.0592 16.7566 43.8025 16.0132 44.7161 16.0132C45.6298 16.0132 46.373 16.7566 46.373 17.6702V34.2249C46.373 35.0014 47.0026 35.6311 47.7792 35.6311C48.5558 35.6311 49.1854 35.0014 49.1854 34.2249V21.019C49.1854 20.1054 49.9287 19.3621 50.8423 19.3621C51.7559 19.3621 52.4992 20.1054 52.4992 21.019V34.2249C52.4992 35.0014 53.1288 35.6311 53.9054 35.6311C54.682 35.6311 55.3116 35.0014 55.3116 34.2249V28.9884C55.3116 28.0748 56.0549 27.3315 56.9685 27.3315C57.8821 27.3315 58.6254 28.0748 58.6254 28.9884V40.515C58.6254 46.0383 56.3823 51.4429 52.4711 55.3428C52.2066 55.6066 52.0578 55.9649 52.0578 56.3385V70.5935C52.0578 71.37 52.6874 71.9997 53.464 71.9997C54.2406 71.9997 54.8702 71.37 54.8702 70.5935V56.9121C57.9265 53.7129 59.989 49.8058 60.9023 45.5664L70.9725 28.1245C71.9935 26.3565 72.2646 24.2968 71.7362 22.3251Z" fill="#6A11BE"></path><path d="M1.40752 9.57913C1.58695 9.57913 1.76947 9.54453 1.94553 9.47141C4.77394 8.29893 7.74747 7.46886 10.7836 7.00411C11.5513 6.88669 12.0784 6.16911 11.9608 5.40147C11.8434 4.63369 11.1261 4.1075 10.3582 4.22421C7.09851 4.72299 3.90576 5.61437 0.868527 6.87362C0.151089 7.17103 -0.189349 7.99365 0.10806 8.71108C0.332347 9.25247 0.855731 9.57913 1.40752 9.57913Z" fill="#6A11BE"></path><path d="M1.40731 18.7489C1.58562 18.7489 1.76687 18.7147 1.94195 18.6426C6.33066 16.8365 11.1501 16.1892 15.8793 16.7707C16.6503 16.8667 17.3518 16.3176 17.4466 15.5467C17.5414 14.776 16.9934 14.0742 16.2225 13.9794C11.0147 13.3386 5.70617 14.0522 0.871554 16.042C0.153413 16.3376 -0.189276 17.1592 0.106305 17.8775C0.32989 18.4206 0.854258 18.7489 1.40731 18.7489Z" fill="#6A11BE"></path><path d="M3.49608 24.1624C2.54648 24.5124 1.61544 24.9372 0.728699 25.425C0.0482438 25.7993 -0.199949 26.6543 0.174379 27.3347C0.430446 27.8003 0.911504 28.0636 1.40775 28.0636C1.63682 28.0636 1.8694 28.0073 2.08427 27.8892C2.84825 27.469 3.65048 27.103 4.46874 26.8014C5.19743 26.5328 5.57049 25.7244 5.30177 24.9955C5.03319 24.267 4.22463 23.8937 3.49608 24.1624Z" fill="#6A11BE"></path><path d="M53.0477 11.9809C53.4176 11.9809 53.779 11.8304 54.0419 11.5689C54.3035 11.3073 54.454 10.9445 54.454 10.5746C54.454 10.2034 54.3035 9.84058 54.0419 9.57902C53.779 9.3176 53.4174 9.16699 53.0477 9.16699C52.6779 9.16699 52.3151 9.31746 52.0535 9.57902C51.7905 9.84199 51.6415 10.2034 51.6415 10.5746C51.6415 10.9445 51.7905 11.3059 52.0535 11.5689C52.3151 11.8304 52.6763 11.9809 53.0477 11.9809Z" fill="#6A11BE"></path></svg>