<svg xmlns="http://www.w3.org/2000/svg" width="74" height="72" viewBox="0 0 74 72" fill="none"><path d="M16.2687 70.3526C19.5622 70.3526 22.2321 67.6827 22.2321 64.3892C22.2321 61.0957 19.5622 58.4258 16.2687 58.4258C12.9752 58.4258 10.3053 61.0957 10.3053 64.3892C10.3053 67.6827 12.9752 70.3526 16.2687 70.3526Z" fill="#6A11BE" fill-opacity="0.16"></path><path d="M16.2577 71.9998C14.7525 71.9998 13.281 71.5534 12.0294 70.7172C10.7778 69.8809 9.80235 68.6922 9.22631 67.3016C8.65027 65.9109 8.49955 64.3806 8.79321 62.9043C9.08688 61.4279 9.81173 60.0718 10.8761 59.0075C11.9405 57.9431 13.2966 57.2182 14.7729 56.9246C16.2493 56.6309 17.7795 56.7816 19.1702 57.3577C20.5609 57.9337 21.7495 58.9092 22.5858 60.1608C23.4221 61.4123 23.8685 62.8838 23.8685 64.3891C23.8663 66.4069 23.0637 68.3414 21.6369 69.7683C20.2101 71.1951 18.2755 71.9976 16.2577 71.9998ZM16.2577 60.073C15.4041 60.073 14.5696 60.3261 13.8598 60.8004C13.1501 61.2747 12.5969 61.9487 12.2702 62.7374C11.9435 63.526 11.8581 64.3938 12.0246 65.2311C12.1911 66.0683 12.6022 66.8374 13.2058 67.441C13.8094 68.0446 14.5785 68.4556 15.4157 68.6222C16.2529 68.7887 17.1207 68.7032 17.9094 68.3766C18.698 68.0499 19.3721 67.4967 19.8464 66.7869C20.3206 66.0772 20.5738 65.2427 20.5738 64.3891C20.5723 63.2448 20.1171 62.1479 19.308 61.3388C18.4989 60.5297 17.402 60.0745 16.2577 60.073Z" fill="#6A11BE"></path><path d="M54.3251 70.3526C57.6186 70.3526 60.2885 67.6827 60.2885 64.3892C60.2885 61.0957 57.6186 58.4258 54.3251 58.4258C51.0316 58.4258 48.3617 61.0957 48.3617 64.3892C48.3617 67.6827 51.0316 70.3526 54.3251 70.3526Z" fill="#6A11BE" fill-opacity="0.16"></path><path d="M54.3251 71.9998C52.8198 71.9998 51.3484 71.5534 50.0968 70.7172C48.8452 69.8809 47.8697 68.6922 47.2937 67.3016C46.7177 65.9109 46.5669 64.3806 46.8606 62.9043C47.1543 61.4279 47.8791 60.0718 48.9435 59.0075C50.0079 57.9431 51.364 57.2182 52.8403 56.9246C54.3167 56.6309 55.8469 56.7816 57.2376 57.3577C58.6283 57.9337 59.8169 58.9092 60.6532 60.1608C61.4895 61.4123 61.9358 62.8838 61.9358 64.3891C61.9336 66.4069 61.1311 68.3414 59.7043 69.7683C58.2775 71.1951 56.3429 71.9976 54.3251 71.9998ZM54.3251 60.073C53.4715 60.073 52.637 60.3261 51.9272 60.8004C51.2175 61.2747 50.6643 61.9487 50.3376 62.7374C50.0109 63.526 49.9254 64.3938 50.092 65.2311C50.2585 66.0683 50.6696 66.8374 51.2732 67.441C51.8768 68.0446 52.6458 68.4556 53.4831 68.6222C54.3203 68.7887 55.1881 68.7032 55.9768 68.3766C56.7654 68.0499 57.4395 67.4967 57.9138 66.7869C58.388 66.0772 58.6411 65.2427 58.6411 64.3891C58.6397 63.2448 58.1845 62.1479 57.3754 61.3388C56.5663 60.5297 55.4693 60.0745 54.3251 60.073Z" fill="#6A11BE"></path><path d="M41.679 14.126C36.3106 12.8543 30.6861 13.1981 25.5125 15.114C20.339 17.03 15.8472 20.4326 12.6021 24.8941C9.35686 29.3556 7.50303 34.677 7.2736 40.1891C7.04418 45.7013 8.4494 51.1583 11.3126 55.8741C14.1758 60.5898 18.3693 64.3539 23.3657 66.6932C28.3622 69.0324 33.9387 69.8424 39.3941 69.0212C44.8496 68.2001 49.9406 65.7845 54.0271 62.0781C58.1136 58.3717 61.0132 53.54 62.3614 48.1904H66.0185C66.7582 48.1904 67.4907 48.0446 68.1741 47.7614C68.8575 47.4783 69.4784 47.0632 70.0013 46.54C70.5243 46.0169 70.939 45.3958 71.2218 44.7122C71.5047 44.0287 71.65 43.2962 71.6497 42.5564V39.1794C71.6497 38.44 71.504 37.7079 71.221 37.0248C70.938 36.3418 70.5231 35.7212 70.0002 35.1985C69.4773 34.6758 68.8565 34.2613 68.1733 33.9786C67.4901 33.6959 66.7579 33.5506 66.0185 33.5509H62.1088C61.8809 32.7602 61.6146 31.9805 61.3208 31.2227C60.1098 28.1074 58.3495 25.2348 56.1235 22.7416L63.2125 14.5049C59.355 11.1278 49.5451 13.3792 49.5451 13.3792" fill="#F7F5FF"></path><path d="M35.2269 70.9816C27.9665 70.9779 20.9602 68.3087 15.5378 63.4806C10.1154 58.6525 6.65441 52.0016 5.81176 44.7903C4.96911 37.579 6.80346 30.3093 10.9666 24.3611C15.1298 18.4129 21.3319 14.2002 28.3959 12.5228C32.8901 11.4712 37.5664 11.4712 42.0606 12.5228L41.3001 15.7296C37.3054 14.7934 33.1483 14.7934 29.1536 15.7296C24.6084 16.8075 20.4318 19.075 17.052 22.2995C13.6723 25.5241 11.2112 29.5897 9.92107 34.0793C8.63098 38.5689 8.55837 43.3208 9.71068 47.8477C10.863 52.3746 13.1988 56.5135 16.4784 59.8398C19.758 63.1661 23.8635 65.5602 28.3736 66.7764C32.8837 67.9927 37.6362 67.9873 42.1436 66.7608C46.651 65.5343 50.7509 63.1309 54.023 59.7972C57.2951 56.4634 59.6214 52.3192 60.7635 47.7897L61.0765 46.5432H66.0185C67.0751 46.5418 68.088 46.1212 68.8349 45.3738C69.5817 44.6264 70.0016 43.6132 70.0023 42.5566V39.1796C70.0009 38.1237 69.5806 37.1115 68.8337 36.3651C68.0868 35.6188 67.0744 35.1992 66.0185 35.1985H60.8678L60.5219 34.0096C60.3077 33.2711 60.0579 32.5353 59.7806 31.8132C58.6418 28.884 56.9845 26.184 54.8879 23.8428L53.9297 22.7638L60.6729 14.9224C57.4468 13.7336 51.887 14.5298 49.9075 14.9828L49.1716 11.7705C50.2699 11.5206 59.9261 9.44223 64.2915 13.2613L65.5188 14.3376L58.2842 22.7528C60.2066 25.125 61.7471 27.7827 62.8501 30.6298C63.0121 31.0472 63.1686 31.4755 63.3141 31.9065H66.0185C67.948 31.908 69.798 32.6749 71.1626 34.039C72.5272 35.4031 73.2948 37.2529 73.297 39.1823V42.5566C73.2948 44.4863 72.5273 46.3364 71.1628 47.7009C69.7983 49.0654 67.9482 49.833 66.0185 49.8351H63.6189C61.8017 55.9515 58.0547 61.3159 52.9375 65.1272C47.8203 68.9385 41.6074 70.9922 35.2269 70.9816Z" fill="#6A11BE"></path><path d="M35.2269 18.692C39.9336 18.692 43.7491 14.8765 43.7491 10.1697C43.7491 5.46301 39.9336 1.64746 35.2269 1.64746C30.5201 1.64746 26.7046 5.46301 26.7046 10.1697C26.7046 14.8765 30.5201 18.692 35.2269 18.692Z" fill="#F7F5FF"></path><path d="M35.2269 20.3392C33.2177 20.3392 31.2536 19.7434 29.583 18.6272C27.9125 17.511 26.6104 15.9244 25.8415 14.0681C25.0726 12.2119 24.8715 10.1693 25.2634 8.19876C25.6554 6.22818 26.6229 4.41808 28.0436 2.99737C29.4643 1.57666 31.2744 0.609146 33.245 0.217173C35.2156 -0.174801 37.2582 0.0263742 39.1144 0.795257C40.9707 1.56414 42.5572 2.8662 43.6735 4.53678C44.7897 6.20735 45.3855 8.17142 45.3855 10.1806C45.3797 12.8731 44.3076 15.4536 42.4037 17.3574C40.4998 19.2613 37.9193 20.3334 35.2269 20.3392ZM35.2269 3.2947C33.8693 3.2947 32.5422 3.69727 31.4135 4.45149C30.2847 5.20571 29.4049 6.27771 28.8854 7.53193C28.3659 8.78615 28.23 10.1663 28.4948 11.4977C28.7597 12.8292 29.4134 14.0522 30.3733 15.0122C31.3333 15.9721 32.5563 16.6258 33.8878 16.8907C35.2193 17.1555 36.5994 17.0196 37.8536 16.5001C39.1078 15.9806 40.1798 15.1008 40.934 13.972C41.6883 12.8433 42.0908 11.5162 42.0908 10.1586C42.0857 8.33977 41.361 6.59685 40.0748 5.31071C38.7887 4.02457 37.0457 3.29978 35.2269 3.2947Z" fill="#6A11BE"></path><path d="M7.24674 40.1899H0.333374V43.4846H7.24674V40.1899Z" fill="#6A11BE"></path><path d="M45.358 23.6284H26.0621V26.9231H45.358V23.6284Z" fill="#6A11BE"></path><path d="M52.0051 37.2C54.0188 37.2 55.6513 35.5675 55.6513 33.5538C55.6513 31.5401 54.0188 29.9077 52.0051 29.9077C49.9914 29.9077 48.359 31.5401 48.359 33.5538C48.359 35.5675 49.9914 37.2 52.0051 37.2Z" fill="#6A11BE" fill-opacity="0.16"></path><path d="M52.0051 38.8472C50.958 38.8478 49.9343 38.5378 49.0634 37.9564C48.1926 37.3751 47.5137 36.5486 47.1126 35.5814C46.7115 34.6141 46.6063 33.5497 46.8102 32.5227C47.0142 31.4957 47.5181 30.5522 48.2583 29.8117C48.9985 29.0711 49.9417 28.5666 50.9686 28.3622C51.9955 28.1577 53.06 28.2624 54.0274 28.6629C54.9948 29.0635 55.8217 29.742 56.4035 30.6125C56.9853 31.4831 57.2958 32.5067 57.2958 33.5537C57.2944 34.9567 56.7366 36.3019 55.7448 37.2942C54.7529 38.2865 53.4081 38.845 52.0051 38.8472ZM52.0051 31.5577C51.6095 31.5572 51.2227 31.674 50.8936 31.8934C50.5645 32.1128 50.3079 32.425 50.1562 32.7903C50.0046 33.1556 49.9648 33.5578 50.0418 33.9457C50.1189 34.3337 50.3093 34.6901 50.589 34.9698C50.8687 35.2495 51.2251 35.4399 51.6131 35.517C52.001 35.594 52.4032 35.5542 52.7685 35.4026C53.1338 35.251 53.446 34.9943 53.6654 34.6652C53.8848 34.3361 54.0017 33.9493 54.0011 33.5537C53.9997 33.0248 53.7889 32.5179 53.4149 32.1439C53.0409 31.7699 52.534 31.5591 52.0051 31.5577Z" fill="#6A11BE"></path><path d="M38.5133 10.1585C38.5133 10.8101 38.3201 11.4471 37.9581 11.9889C37.5961 12.5307 37.0815 12.953 36.4795 13.2024C35.8774 13.4517 35.215 13.517 34.5759 13.3898C33.9368 13.2627 33.3497 12.9489 32.8889 12.4882C32.4282 12.0274 32.1144 11.4403 31.9873 10.8012C31.8601 10.1621 31.9254 9.49966 32.1747 8.89764C32.4241 8.29561 32.8464 7.78105 33.3882 7.41903C33.93 7.057 34.567 6.86377 35.2186 6.86377" fill="#F7F5FF"></path><path d="M35.2269 15.1005C33.9677 15.0277 32.7839 14.4762 31.9181 13.5589C31.0524 12.6416 30.5701 11.428 30.5701 10.1667C30.5701 8.90537 31.0524 7.69177 31.9181 6.7745C32.7839 5.85722 33.9677 5.3057 35.2269 5.23291V8.5276C34.9011 8.5276 34.5826 8.62422 34.3117 8.80523C34.0408 8.98624 33.8296 9.24352 33.7049 9.54454C33.5803 9.84555 33.5476 10.1768 33.6112 10.4963C33.6748 10.8159 33.8317 11.1094 34.062 11.3398C34.2924 11.5702 34.586 11.7271 34.9055 11.7906C35.2251 11.8542 35.5563 11.8216 35.8573 11.6969C36.1583 11.5722 36.4156 11.3611 36.5966 11.0902C36.7776 10.8193 36.8742 10.5008 36.8742 10.1749H40.1689C40.1646 11.4828 39.642 12.7356 38.7156 13.6589C37.7893 14.5821 36.5348 15.1005 35.2269 15.1005Z" fill="#6A11BE"></path></svg>